<svg width="96" height="32" viewBox="0 0 96 32" fill="none" xmlns="http://www.w3.org/2000/svg">
<path d="M17.4436 28.0931V6.91032V6.8756C17.4436 6.25053 16.8839 5.78173 16.2123 5.78173C15.5779 5.78173 15.0369 6.23317 14.9996 6.82351V7.91737C13.6937 6.2158 11.7348 5.34766 9.17886 5.34766C6.52968 5.34766 4.30959 6.25053 2.57456 8.05628C0.876842 9.84466 0 12.2928 0 15.3314C0 18.1789 0.764905 20.4708 2.27606 22.1724C3.80587 23.8913 5.8394 24.7594 8.33933 24.7594C11.2497 24.7594 13.4884 23.7524 14.9996 21.7904V28.2668C15.3541 27.9889 15.8391 27.8153 16.3428 27.8153C16.7346 27.798 17.1264 27.9021 17.4436 28.0931ZM14.9996 16.3384C14.9996 18.0921 14.4213 19.6026 13.3019 20.8007C12.2012 21.9987 10.5594 22.6064 8.45127 22.6064C6.69758 22.6064 5.29837 21.9814 4.19765 20.6791C3.09693 19.3769 2.51859 17.5538 2.51859 15.2445C2.51859 12.779 3.1529 10.8517 4.40287 9.4974C5.65283 8.14309 7.18264 7.4833 9.06692 7.4833C10.9512 7.4833 12.3691 8.00419 13.4325 9.09805C14.4772 10.1746 14.9996 11.581 14.9996 13.2652V16.3384Z" fill="#FF7869"/>
<path d="M20.9327 26.5312C20.6155 26.5312 20.317 26.6528 20.0931 26.8438L17.7051 29.0836C17.7051 29.0836 17.6305 29.1704 17.5186 29.1357C17.4626 29.1183 17.444 29.0662 17.444 29.0315C17.2014 28.6842 16.791 28.4759 16.3432 28.4759C15.6157 28.4759 15.0373 29.0141 15 29.6739C15 29.7086 15 29.7434 15 29.7434C15 30.0733 15.1306 30.3684 15.3918 30.5768L15.4291 30.6115L16.5112 31.6359L16.5671 31.688H16.5858C16.5858 31.688 16.5858 31.688 16.5858 31.7054C16.6044 31.7227 16.6231 31.7401 16.6604 31.7748C16.6977 31.7922 16.7164 31.8269 16.7537 31.8443C16.791 31.8616 16.8097 31.879 16.847 31.8964C16.8843 31.9137 16.9029 31.9311 16.9402 31.9311H16.9589C16.9962 31.9484 17.0149 31.9485 17.0522 31.9658H17.0708C17.1082 31.9832 17.1268 31.9832 17.1641 31.9832H17.1828C17.2201 31.9832 17.2387 32.0005 17.2761 32.0005C17.2947 32.0005 17.2947 32.0005 17.3134 32.0005C17.3507 32.0005 17.388 32.0005 17.444 32.0005C17.4813 32.0005 17.5186 32.0005 17.5746 32.0005C17.5932 32.0005 17.5932 32.0005 17.6119 32.0005C17.6492 32.0005 17.6678 32.0005 17.7051 31.9832H17.7238C17.7611 31.9832 17.7798 31.9658 17.8171 31.9658H17.8357C17.8731 31.9485 17.9104 31.9484 17.929 31.9311C17.9663 31.9137 18.0036 31.8964 18.0223 31.879C18.1342 31.8269 18.2275 31.7575 18.3021 31.6706L21.7722 28.4238C21.9961 28.2154 22.1267 27.9376 22.1267 27.6251C22.1453 27.0521 21.6043 26.5312 20.9327 26.5312Z" fill="#FF7869"/>
<path d="M35.1473 5.79861C34.4943 5.79861 33.916 6.26742 33.8973 6.87512V16.3727C33.8973 17.3277 33.7481 18.1959 33.4682 18.9772C33.1884 19.7585 32.7779 20.4357 32.2742 20.9913C31.7705 21.5469 31.1549 21.981 30.4459 22.2935C29.737 22.6061 28.9534 22.7624 28.1139 22.7624C26.3602 22.7624 25.0729 22.2241 24.2147 21.165C23.3752 20.1058 22.9461 18.4737 22.9461 16.2512V8.55934V6.90985V6.87512C22.9461 6.25005 22.3864 5.78125 21.7148 5.78125C21.0805 5.78125 20.5395 6.23269 20.5022 6.82304V6.8404L20.4648 16.6679C20.4648 22.0331 22.8342 24.7244 27.5542 24.7244C30.2034 24.7244 32.3115 23.6826 33.6734 21.5817C33.7481 21.4601 33.9346 21.5122 33.9346 21.6511C33.9346 21.6511 33.9533 23.6305 33.9533 23.6479C33.9533 24.2729 34.4943 24.7765 35.1659 24.7765C35.8376 24.7765 36.3786 24.2729 36.3786 23.6479L36.3973 6.8404C36.3413 6.25005 35.8003 5.79861 35.1473 5.79861Z" fill="#FF7869"/>
<path d="M94.3815 6.94501V6.91028C94.3815 6.28521 93.8218 5.81641 93.1501 5.81641C92.5158 5.81641 91.9748 6.26785 91.9375 6.85819V6.87555L91.9562 23.6309V23.6656C91.9562 24.2907 92.5158 24.7595 93.1875 24.7595C93.8218 24.7595 94.3628 24.3081 94.4001 23.7351V23.7177L94.3815 6.94501Z" fill="#FF7869"/>
<path d="M48.2059 5.48568C47.9447 5.45096 47.6649 5.43359 47.3477 5.43359C46.7321 5.43359 46.1537 5.53777 45.6127 5.72876C45.053 5.91976 44.5493 6.19756 44.0829 6.56219C43.6165 6.92681 43.2061 7.37825 42.8516 7.9165C42.4971 8.45475 42.1986 9.06245 41.9747 9.73961H41.9001V6.90945V6.87472C41.9001 6.24965 41.3404 5.78085 40.6688 5.78085C40.0345 5.78085 39.4935 6.23229 39.4562 6.82263V6.83999L39.4375 23.6821C39.4375 24.3071 39.9972 24.7759 40.6688 24.7759C41.3031 24.7759 41.8442 24.3245 41.8815 23.7515V23.7342L41.9001 15.2437C41.9001 14.7228 41.9374 14.3755 42.0121 13.8025C42.0867 13.2296 42.1986 12.6566 42.3665 12.0836C42.5344 11.5106 42.7397 10.9724 43.0008 10.4515C43.262 9.9306 43.5978 9.4618 43.971 9.06246C44.3441 8.66311 44.7918 8.35057 45.2956 8.10749C45.7993 7.86441 46.3776 7.69078 47.0492 7.69078C47.2918 7.69078 47.3291 7.67342 47.9447 7.72551C48.0007 7.72551 48.0567 7.74287 48.1126 7.74287C48.7843 7.74287 49.3253 7.23934 49.3253 6.61428C49.3066 6.02393 48.8216 5.53777 48.2059 5.48568Z" fill="#FF7869"/>
<path d="M66.1744 10.5761C65.8199 9.46485 65.3162 8.52725 64.6446 7.76328C63.973 6.99931 63.1521 6.3916 62.1633 5.99226C61.1745 5.57554 60.0552 5.36719 58.7679 5.36719C57.462 5.36719 56.2493 5.61027 55.1486 6.09643C54.0479 6.5826 53.0964 7.25975 52.2942 8.1279C51.492 8.99605 50.8577 10.0031 50.4099 11.1838C49.9622 12.3645 49.7383 13.6493 49.7383 15.0384C49.7383 16.5837 49.9435 17.9554 50.3539 19.1534C50.7644 20.3514 51.3614 21.3759 52.1263 22.1919C52.8912 23.0253 53.824 23.6504 54.906 24.0845C55.9881 24.5186 57.2008 24.7269 58.544 24.7269C60.932 24.7269 63.0029 24.2408 64.7565 23.2511C64.7752 23.2337 64.8125 23.2163 64.8312 23.199C64.8871 23.1643 64.9431 23.1295 64.9991 23.1122C65.0923 23.0427 65.167 22.9559 65.2229 22.8691C65.3162 22.7302 65.3908 22.5392 65.3908 22.3656C65.3908 21.9488 65.0923 21.5842 64.6819 21.4627C64.5886 21.428 64.4767 21.4106 64.3648 21.4106C64.2155 21.4106 64.0663 21.4453 63.973 21.48C63.8797 21.5148 63.8424 21.5495 63.7678 21.5842C63.5439 21.7058 63.3013 21.8099 63.0588 21.9141C61.7902 22.4524 60.4656 22.7302 59.085 22.7302C58.0403 22.7302 56.9582 22.626 56.1187 22.2787C55.2792 21.9488 54.5702 21.4627 53.9919 20.8376C53.4136 20.2125 52.9658 19.4486 52.6487 18.5457C52.3688 17.7296 52.2755 16.8094 52.3128 15.8023C52.3128 15.6114 52.4807 15.4377 52.686 15.4377H65.2229C65.2229 15.4377 65.4095 15.4204 65.4655 15.4204C66.1184 15.4204 66.6408 14.9516 66.6781 14.3439C66.6781 14.3439 66.6781 14.2223 66.6781 14.2049C66.6781 12.8854 66.5102 11.67 66.1744 10.5761ZM63.7491 13.441H52.8352C52.5927 13.441 52.4248 13.25 52.4621 13.0243C52.6113 12.2429 52.8352 11.531 53.1337 10.906C53.4882 10.1594 53.9359 9.51694 54.477 8.99605C55.018 8.47516 55.6523 8.07581 56.3612 7.79801C57.0888 7.5202 57.8537 7.38129 58.6933 7.38129C60.3723 7.38129 61.6969 7.91955 62.6297 8.97869C63.5066 9.96838 64.0103 11.3401 64.0849 13.0937C64.1222 13.2673 63.9543 13.441 63.7491 13.441Z" fill="#FF7869"/>
<path d="M88.9157 22.574V12.2777C88.9157 9.98575 88.3934 8.24945 87.274 7.10349C86.136 5.94017 84.4756 5.36719 82.2555 5.36719L82.7219 5.38455C80.3339 5.38455 78.2631 5.87072 76.5094 6.86041C76.4907 6.87777 76.4534 6.89513 76.4347 6.9125C76.3788 6.94722 76.3228 6.98195 76.2668 6.99931C76.1736 7.06876 76.0989 7.15558 76.043 7.2424C75.9497 7.39866 75.8751 7.57229 75.8751 7.74592C75.8751 8.16264 76.1736 8.52726 76.584 8.6488C76.6773 8.68353 76.7892 8.70089 76.9011 8.70089C77.0131 8.70089 77.125 8.68353 77.2183 8.6488C78.6735 7.83274 80.2033 7.41603 81.8077 7.3813C81.8824 7.3813 81.957 7.3813 82.0129 7.3813C82.0129 7.3813 82.0316 7.3813 82.0503 7.3813C84.9233 7.3813 86.4158 9.04815 86.4904 12.4166C86.4904 12.5902 86.3598 12.7465 86.1733 12.7638L80.4645 13.5278C78.1698 13.8056 76.4907 14.4654 75.3713 15.4551C74.252 16.4448 73.7109 17.7818 73.7109 19.466C73.7109 20.2473 73.8602 20.9592 74.14 21.619C74.4385 22.2614 74.849 22.8344 75.39 23.2858C75.931 23.7546 76.584 24.1019 77.3489 24.3623C78.1138 24.6228 78.9906 24.7443 79.9421 24.7443C81.36 24.7443 82.6099 24.4144 83.7293 23.772C84.6994 23.199 85.5576 22.4698 86.1919 21.5148C86.2666 21.4106 86.4531 21.4454 86.4531 21.5843V22.5913V23.6505V23.6852C86.4531 24.3103 87.0128 24.7791 87.6844 24.7791C88.3187 24.7791 88.8598 24.3276 88.8971 23.7373V23.7199V22.574H88.9157ZM86.4718 16.4795C86.4718 17.3824 86.3225 18.2158 86.024 18.9972C85.7255 19.7611 85.2964 20.4383 84.7554 20.9939C84.2144 21.5495 83.5801 21.9836 82.8525 22.2961C82.1062 22.6087 81.304 22.7649 80.4272 22.7649C79.7742 22.7649 79.1959 22.6781 78.6921 22.5045C78.1884 22.3309 77.7407 22.1052 77.3862 21.7926C77.0317 21.4801 76.7519 21.1155 76.5653 20.6987C76.3788 20.282 76.2855 19.8132 76.2855 19.3271C76.2855 18.6673 76.3788 18.1117 76.584 17.6602C76.7706 17.2088 77.0877 16.8268 77.4981 16.5143C77.9086 16.2017 78.431 15.9586 79.0653 15.785C79.6996 15.6114 80.4645 15.4551 81.36 15.3336L86.0613 14.7259C86.2852 14.6911 86.4904 14.8648 86.4904 15.0731V16.4795H86.4718Z" fill="#FF7869"/>
<path d="M70.8933 21.7379C70.7254 21.5816 70.5202 21.4601 70.2963 21.3733C70.0725 21.2865 69.8299 21.2344 69.5687 21.2344C69.0464 21.2344 68.5986 21.408 68.2442 21.7379C67.8897 22.0678 67.7031 22.4845 67.7031 22.9881C67.7031 23.4742 67.8897 23.8736 68.2442 24.2208C68.5986 24.5507 69.0464 24.7244 69.5687 24.7244C69.8299 24.7244 70.0725 24.6723 70.2963 24.5855C70.5202 24.4986 70.7254 24.3771 70.8933 24.2208C71.0612 24.0646 71.1918 23.8736 71.3038 23.6652C71.4157 23.4569 71.453 23.2311 71.453 22.9881C71.453 22.7276 71.3971 22.5019 71.3038 22.2762C71.2105 22.0504 71.0612 21.8942 70.8933 21.7379Z" fill="#FF7869"/>
<path d="M94.8672 1.04178C94.7552 0.833422 94.6246 0.642429 94.4567 0.486163C94.2888 0.329896 94.0836 0.208355 93.8597 0.121541C93.6545 0.0520889 93.412 0 93.1508 0C92.6284 0 92.1807 0.17363 91.8262 0.503526C91.4717 0.833422 91.2852 1.25013 91.2852 1.75366C91.2852 2.23982 91.4717 2.63917 91.8262 2.98643C92.1807 3.31632 92.6284 3.48995 93.1508 3.48995C93.412 3.48995 93.6545 3.43786 93.8784 3.35105C94.1023 3.26423 94.3075 3.14269 94.4754 2.98643C94.6433 2.83016 94.7739 2.63917 94.8858 2.43081C94.9978 2.22246 95.0351 1.99674 95.0351 1.75366C95.0351 1.49321 94.9791 1.2675 94.8672 1.04178Z" fill="#FF7869"/>
</svg>
